# xmcd CD database file
# Copyright (C) 1993-1998 Ti Kan
#
# Track frame offsets:
#  150
#  14825
#  28435
#  42072
#  53970
#  67645
#  80575
#  92580
#  107697
#  125917
#  134700
#  147980
#  159160
#  171215
#
# Disc length: 2520 seconds
#
# Revision: 1
# Processed by: cddbd v1.4b41PL1 Copyright (c) Steve Scherf et al.
# Submitted via: KiC 2.1 - (C) 1996-1998 Alwin Hoogerdijk
#
DISCID=c509d60e
DTITLE=Thomas Michael Riley - Headed in the Right Direction
DYEAR=1900
DGENRE=
TTITLE0=On the Passenger's Side
TTITLE1=Steppin' Shoes
TTITLE2=Living in the Lone Star State (The National Anthem of Texas)
TTITLE3=West Texas 46
TTITLE4=My Home
TTITLE5=Jamaica
TTITLE6=Tequila Memory
TTITLE7=Everything's a Compromise
TTITLE8=Deborah Kay - Lead, Follow, or Get Out of My Way
TTITLE9=Moving to the Country
TTITLE10=My First Love ('57 Chevrolet)
TTITLE11=Old Friends
TTITLE12=Higher Frequency
TTITLE13=Harmonica Music
EXTD=
EXTT0=
EXTT1=
EXTT2=
EXTT3=
EXTT4=
EXTT5=
EXTT6=
EXTT7=
EXTT8=
EXTT9=
EXTT10=
EXTT11=
EXTT12=
EXTT13=
PLAYORDER=
